<svg width="390" height="369" viewBox="0 0 390 369" fill="none" xmlns="http://www.w3.org/2000/svg">
<path d="M230.362 88.6458H165.692C164.219 88.6479 162.806 89.3561 161.764 90.6149C160.722 91.8737 160.135 93.5805 160.134 95.3607V268.986L159.392 269.259L143.528 275.128C142.776 275.405 141.964 275.31 141.27 274.865C140.576 274.419 140.057 273.659 139.826 272.751L92.6364 86.5462C92.4068 85.638 92.485 84.6567 92.854 83.8181C93.223 82.9795 93.8525 82.3523 94.6042 82.0741L119.051 73.0313L189.924 46.8252L214.371 37.7824C214.743 37.6441 215.134 37.5958 215.522 37.6402C215.909 37.6846 216.286 37.8209 216.63 38.0413C216.974 38.2617 217.278 38.5618 217.526 38.9245C217.774 39.2872 217.96 39.7054 218.074 40.1551L230.136 87.7504L230.362 88.6458Z" fill="#F2F2F2"/>
<path d="M244.474 87.7503L229.936 30.3869C229.694 29.4311 229.299 28.5423 228.772 27.7711C228.246 27 227.599 26.3618 226.868 25.8928C226.138 25.4239 225.338 25.1334 224.514 25.0381C223.691 24.9428 222.859 25.0444 222.068 25.3373L187.697 38.0464L116.828 64.257L82.4569 76.9706C80.8602 77.5628 79.5232 78.8962 78.7395 80.678C77.9558 82.4598 77.7893 84.5445 78.2766 86.4744L127.964 282.519C128.36 284.077 129.158 285.44 130.243 286.41C131.327 287.379 132.64 287.903 133.99 287.904C134.614 287.905 135.235 287.791 135.831 287.569L159.393 278.857L160.134 278.58V277.644L159.393 277.917L135.613 286.714C134.203 287.233 132.681 287.055 131.38 286.22C130.079 285.385 129.105 283.961 128.672 282.259L78.9883 86.2103C78.7738 85.3673 78.699 84.4815 78.7683 83.6035C78.8375 82.7256 79.0495 81.8728 79.392 81.0939C79.7345 80.3151 80.2008 79.6255 80.7642 79.0647C81.3276 78.5038 81.9771 78.0828 82.6754 77.8256L117.047 65.112L187.916 38.9059L222.287 26.1923C222.817 25.997 223.368 25.8975 223.921 25.8968C225.11 25.9001 226.266 26.3629 227.221 27.2176C228.176 28.0723 228.879 29.274 229.228 30.6465L243.699 87.7503L243.929 88.6456H244.7L244.474 87.7503Z" fill="#3F3D56"/>
<path d="M123.463 82.2205C122.749 82.2199 122.053 81.9428 121.479 81.4298C120.905 80.9169 120.482 80.1951 120.272 79.3703L115.499 60.5364C115.37 60.0305 115.326 59.499 115.368 58.9723C115.409 58.4456 115.537 57.9341 115.742 57.4668C115.948 56.9995 116.227 56.5857 116.565 56.2491C116.903 55.9124 117.293 55.6594 117.711 55.5046L182.911 31.3918C183.756 31.0801 184.67 31.1864 185.451 31.6875C186.232 32.1886 186.816 33.0436 187.076 34.0647L191.849 52.8988C192.107 53.9206 192.019 55.0242 191.604 55.9676C191.19 56.9109 190.482 57.617 189.637 57.9309L124.437 82.0436C124.122 82.1607 123.793 82.2203 123.463 82.2205V82.2205Z" fill="#CCCCCC"/>
<path d="M148.467 45.1245C152.56 45.1245 155.878 41.116 155.878 36.1712C155.878 31.2265 152.56 27.218 148.467 27.218C144.373 27.218 141.055 31.2265 141.055 36.1712C141.055 41.116 144.373 45.1245 148.467 45.1245Z" fill="#CCCCCC"/>
<path d="M148.467 41.8407C151.059 41.8407 153.16 39.3024 153.16 36.1712C153.16 33.0401 151.059 30.5018 148.467 30.5018C145.875 30.5018 143.774 33.0401 143.774 36.1712C143.774 39.3024 145.875 41.8407 148.467 41.8407Z" fill="white"/>
<path d="M301.324 285.617H176.069C175.233 285.616 174.433 285.214 173.842 284.501C173.252 283.788 172.92 282.821 172.919 281.812V100.509C172.92 99.5 173.252 98.5328 173.842 97.8194C174.433 97.1061 175.233 96.7048 176.069 96.7037H301.324C302.159 96.7048 302.96 97.1061 303.55 97.8195C304.141 98.5328 304.473 99.5 304.474 100.509V281.812C304.473 282.821 304.141 283.788 303.55 284.501C302.96 285.214 302.159 285.616 301.324 285.617V285.617Z" fill="#E6E6E6"/>
<path d="M243.699 87.7505H165.692C164.022 87.7533 162.421 88.556 161.24 89.9826C160.059 91.4092 159.395 93.3432 159.392 95.3607V277.917L160.134 277.644V95.3607C160.135 93.5805 160.722 91.8738 161.764 90.6149C162.806 89.3561 164.219 88.6479 165.692 88.6458H243.929L243.699 87.7505ZM311.7 87.7505H165.692C164.022 87.7533 162.421 88.556 161.24 89.9826C160.059 91.4092 159.395 93.3432 159.392 95.3607V300.39C159.395 302.407 160.059 304.341 161.24 305.768C162.421 307.194 164.022 307.997 165.692 308H311.7C313.37 307.997 314.971 307.194 316.152 305.768C317.333 304.341 317.998 302.407 318 300.39V95.3607C317.998 93.3432 317.333 91.4092 316.152 89.9826C314.971 88.556 313.37 87.7533 311.7 87.7505V87.7505ZM317.259 300.39C317.257 302.17 316.671 303.877 315.629 305.136C314.587 306.394 313.174 307.103 311.7 307.105H165.692C164.219 307.103 162.806 306.394 161.764 305.136C160.722 303.877 160.135 302.17 160.134 300.39V95.3607C160.135 93.5805 160.722 91.8738 161.764 90.6149C162.806 89.3561 164.219 88.6479 165.692 88.6458H311.7C313.174 88.6479 314.587 89.3561 315.629 90.6149C316.671 91.8738 317.257 93.5805 317.259 95.3607V300.39Z" fill="#3F3D56"/>
<path d="M272.79 107.448H204.603C203.719 107.446 202.871 107.021 202.246 106.266C201.621 105.511 201.269 104.487 201.268 103.419V83.7215C201.269 82.6533 201.621 81.6292 202.246 80.8739C202.871 80.1186 203.719 79.6937 204.603 79.6925H272.79C273.674 79.6937 274.522 80.1186 275.147 80.8739C275.772 81.6292 276.124 82.6533 276.125 83.7215V103.419C276.124 104.487 275.772 105.511 275.147 106.266C274.522 107.021 273.674 107.446 272.79 107.448V107.448Z" fill="#CCCCCC"/>
<path d="M238.696 81.0355C242.79 81.0355 246.108 77.027 246.108 72.0823C246.108 67.1376 242.79 63.1291 238.696 63.1291C234.603 63.1291 231.285 67.1376 231.285 72.0823C231.285 77.027 234.603 81.0355 238.696 81.0355Z" fill="#CCCCCC"/>
<path d="M238.696 77.5357C241.189 77.5357 243.211 75.0941 243.211 72.0823C243.211 69.0705 241.189 66.6289 238.696 66.6289C236.203 66.6289 234.182 69.0705 234.182 72.0823C234.182 75.0941 236.203 77.5357 238.696 77.5357Z" fill="white"/>
<path d="M312 333C324.15 333 334 323.15 334 311C334 298.85 324.15 289 312 289C299.85 289 290 298.85 290 311C290 323.15 299.85 333 312 333Z" fill="#CCCCCC"/>
<path d="M322.573 308.653H314.921V301C314.921 300.239 314.618 299.509 314.08 298.971C313.542 298.433 312.812 298.131 312.051 298.131C311.29 298.131 310.56 298.433 310.022 298.971C309.484 299.509 309.182 300.239 309.182 301V308.653H301.529C300.768 308.653 300.038 308.955 299.5 309.493C298.962 310.031 298.66 310.761 298.66 311.522C298.66 312.283 298.962 313.013 299.5 313.551C300.038 314.089 300.768 314.392 301.529 314.392H309.182V322.044C309.182 322.805 309.484 323.535 310.022 324.073C310.56 324.611 311.29 324.913 312.051 324.913C312.812 324.913 313.542 324.611 314.08 324.073C314.618 323.535 314.921 322.805 314.921 322.044V314.392H322.573C323.334 314.392 324.064 314.089 324.602 313.551C325.14 313.013 325.442 312.283 325.442 311.522C325.442 310.761 325.14 310.031 324.602 309.493C324.064 308.955 323.334 308.653 322.573 308.653V308.653Z" fill="white"/>
</svg>
